<?xml version="1.0" encoding="UTF-8" standalone="no"?>
<svg
   xmlns:dc="http://purl.org/dc/elements/1.1/"
   xmlns:cc="http://creativecommons.org/ns#"
   xmlns:rdf="http://www.w3.org/1999/02/22-rdf-syntax-ns#"
   xmlns:svg="http://www.w3.org/2000/svg"
   xmlns="http://www.w3.org/2000/svg"
   xmlns:sodipodi="http://sodipodi.sourceforge.net/DTD/sodipodi-0.dtd"
   xmlns:inkscape="http://www.inkscape.org/namespaces/inkscape"
   version="1.1"
   x="0px"
   y="0px"
   viewBox="0 0 100 125"
   id="svg2"
   inkscape:version="0.91 r13725"
   sodipodi:docname="noun_707745_cc.svg"
   width="40px"
   height="40px">
  <metadata
     id="metadata16">
    <rdf:RDF>
      <cc:Work
         rdf:about="">
        <dc:format>image/svg+xml</dc:format>
        <dc:type
           rdf:resource="http://purl.org/dc/dcmitype/StillImage" />
      </cc:Work>
    </rdf:RDF>
  </metadata>
  <defs
     id="defs14" />
  <sodipodi:namedview
     pagecolor="#ffffff"
     bordercolor="#666666"
     borderopacity="1"
     objecttolerance="10"
     gridtolerance="10"
     guidetolerance="10"
     inkscape:pageopacity="0"
     inkscape:pageshadow="2"
     inkscape:window-width="640"
     inkscape:window-height="480"
     id="namedview12"
     showgrid="false"
     inkscape:zoom="1.888"
     inkscape:cx="50"
     inkscape:cy="62.5"
     inkscape:window-x="0"
     inkscape:window-y="0"
     inkscape:window-maximized="0"
     inkscape:current-layer="svg2" />
  <g
     transform="translate(0,-952.36218)"
     id="g4">
    <path
       style="text-indent:0;text-transform:none;direction:ltr;block-progression:tb;baseline-shift:baseline;color:#000000;enable-background:accumulate;"
       d="m 25,957.36218 c -4.3801,0 -8,3.6198 -8,8 l 0,74.00002 c 0,4.3801 3.6199,8 8,8 l 50,0 c 4.3801,0 8,-3.6199 8,-8 l 0,-74.00002 c 0,-4.3802 -3.6199,-8 -8,-8 l -50,0 z m 0,6 50,0 c 1.1599,0 2,0.8401 2,2 l 0,74.00002 c 0,1.1599 -0.8401,2 -2,2 l -50,0 c -1.1599,0 -2,-0.8401 -2,-2 l 0,-74.00002 c 0,-1.1599 0.8401,-2 2,-2 z m 3.6875,3 a 3.0003,3.0003 0 0 0 -2.6875,3 l 0,15 a 3.0003,3.0003 0 0 0 3,3 l 42,0 a 3.0003,3.0003 0 0 0 3,-3 l 0,-15 a 3.0003,3.0003 0 0 0 -3,-3 l -42,0 a 3.0003,3.0003 0 0 0 -0.3125,0 z m 3.3125,6 36,0 0,9 -36,0 0,-9 z m -3,18 c -1.6194,0.02 -2.9671,1.7356 -3,3 l 0,8.00002 c 2e-4,1.5707 1.4292,2.9998 3,3 l 8,0 c 1.5708,-2e-4 2.9998,-1.4293 3,-3 l 0,-8.00002 c -2e-4,-1.5708 -1.4292,-2.9999 -3,-3 l -8,0 z m 17,0 c -1.6194,0.02 -2.9671,1.7356 -3,3 l 0,8.00002 c 2e-4,1.5707 1.4292,2.9998 3,3 l 8,0 c 1.5708,-2e-4 2.9998,-1.4293 3,-3 l 0,-8.00002 c -2e-4,-1.5708 -1.4292,-2.9999 -3,-3 l -8,0 z m 17,0 c -1.6194,0.02 -2.9671,1.7356 -3,3 l 0,8.00002 c 2e-4,1.5707 1.4292,2.9998 3,3 l 8,0 c 1.5708,-2e-4 2.9998,-1.4293 3,-3 l 0,-8.00002 c -2e-4,-1.5708 -1.4292,-2.9999 -3,-3 l -8,0 z m -31,6 2,0 0,2 -2,0 0,-2 z m 17,0 2,0 0,2 -2,0 0,-2 z m 17,0 2,0 0,2 -2,0 0,-2 z m -37,11.00002 c -1.6194,0.02 -2.9671,1.7357 -3,3 l 0,8 c 2e-4,1.5707 1.4292,2.9998 3,3 l 8,0 c 1.5708,-2e-4 2.9998,-1.4293 3,-3 l 0,-8 c -2e-4,-1.5708 -1.4292,-2.9999 -3,-3 l -8,0 z m 17,0 c -1.6194,0.02 -2.9671,1.7357 -3,3 l 0,8 c 2e-4,1.5707 1.4292,2.9998 3,3 l 8,0 c 1.5708,-2e-4 2.9998,-1.4293 3,-3 l 0,-8 c -2e-4,-1.5708 -1.4292,-2.9999 -3,-3 l -8,0 z m 17,0 c -1.5951,0.029 -2.9671,1.7358 -3,3 l 0,25 c 2e-4,1.5707 1.4292,2.9998 3,3 l 8,0 c 1.5708,-2e-4 2.9998,-1.4293 3,-3 l 0,-25 c -2e-4,-1.5708 -1.4292,-2.9999 -3,-3 l -8,0 z m -31,6 2,0 0,2 -2,0 0,-2 z m 17,0 2,0 0,2 -2,0 0,-2 z m 17,0 2,0 0,19 -2,0 0,-19 z m -37,11 c -1.6194,0.02 -2.9671,1.7357 -3,3 l 0,8 c 2e-4,1.5707 1.4292,2.9998 3,3 l 8,0 c 1.5708,-2e-4 2.9998,-1.4293 3,-3 l 0,-8 c -2e-4,-1.5708 -1.4292,-2.9999 -3,-3 l -8,0 z m 17,0 c -1.6194,0.02 -2.9671,1.7357 -3,3 l 0,8 c 2e-4,1.5707 1.4292,2.9998 3,3 l 8,0 c 1.5708,-2e-4 2.9998,-1.4293 3,-3 l 0,-8 c -2e-4,-1.5708 -1.4292,-2.9999 -3,-3 l -8,0 z m -14,6 2,0 0,2 -2,0 0,-2 z m 17,0 2,0 0,2 -2,0 0,-2 z"
       stroke="#FFFFFF"
       fill="#FFFFFF"
       fill-opacity="1"

       marker="none"
       visibility="visible"
       display="inline"
       overflow="visible"
       id="path6" />
  </g>
</svg>
